<?xml version="1.0" encoding="utf-8"?>
<!-- Generator: Adobe Illustrator 16.0.0, SVG Export Plug-In . SVG Version: 6.00 Build 0)  -->
<!DOCTYPE svg PUBLIC "-//W3C//DTD SVG 1.1//EN" "http://www.w3.org/Graphics/SVG/1.1/DTD/svg11.dtd">
<svg version="1.1" id="Layer_1" xmlns="http://www.w3.org/2000/svg" xmlns:xlink="http://www.w3.org/1999/xlink" x="0px" y="0px"
	 width="300px" height="113.333px" viewBox="0 0 300 113.333" enable-background="new 0 0 300 113.333" xml:space="preserve">
<g>
	<path fill="#FFFFFF" d="M79.887,43.601h-4.966c-0.357,0-0.615-0.291-0.615-0.616v-2.663c0-0.325,0.258-0.616,0.615-0.616h14.182
		c0.357,0,0.617,0.291,0.617,0.616v2.663c0,0.325-0.26,0.616-0.617,0.616h-4.964v18.205c0,0.325-0.293,0.619-0.617,0.619h-3.018
		c-0.324,0-0.617-0.294-0.617-0.619V43.601z"/>
	<path fill="#FFFFFF" d="M92.445,40.421c0-0.357,0.355-0.714,0.713-0.714h2.628c0.391,0,0.715,0.357,0.715,0.714v7.951
		c0.748-0.649,2.044-1.265,3.83-1.265c4.771,0,6.069,3.31,6.069,7.074v7.529c0,0.388-0.357,0.715-0.716,0.715h-2.628
		c-0.389,0-0.715-0.327-0.715-0.715v-7.562c0-2.077-0.939-3.342-2.726-3.342c-1.753,0-2.725,1.103-3.115,2.629v8.275
		c0,0.421-0.194,0.715-0.779,0.715h-2.563c-0.357,0-0.713-0.327-0.713-0.715V40.421z"/>
	<path fill="#FFFFFF" d="M117.105,47.107c4.252,0,7.69,3.569,7.69,7.787c0,4.285-3.438,7.889-7.69,7.889
		c-4.218,0-7.658-3.604-7.658-7.889C109.447,50.676,112.888,47.107,117.105,47.107z M117.105,59.082
		c2.176,0,3.927-1.883,3.927-4.188c0-2.271-1.751-4.088-3.927-4.088c-2.175,0-3.895,1.816-3.895,4.088
		C113.211,57.199,114.931,59.082,117.105,59.082z"/>
	<path fill="#FFFFFF" d="M127.846,48.146c0-0.423,0.325-0.716,0.714-0.716h2.628c0.391,0,0.716,0.292,0.716,0.716v7.949
		c0,1.981,0.68,2.987,2.529,2.987c1.656,0,2.436-1.494,2.663-2.792v-8.144c0-0.586,0.194-0.716,0.811-0.716h2.531
		c0.389,0,0.714,0.292,0.714,0.716V61.71c0,0.388-0.325,0.715-0.714,0.715h-1.169c-0.356,0-0.617-0.261-0.714-0.553l-0.421-1.266
		c-0.779,0.81-2.337,2.176-4.641,2.176c-4.641,0-5.647-2.891-5.647-6.688V48.146z"/>
	<path fill="#FFFFFF" d="M159.484,62.585c0,4.836-3.376,7.271-7.465,7.271c-2.465,0-4.672-1.135-5.385-1.689
		c-0.229-0.194-0.325-0.583-0.162-0.844l0.973-2.106c0.13-0.295,0.552-0.39,0.875-0.196c0.554,0.325,2.014,1.137,3.57,1.137
		c2.303,0,3.539-0.78,3.539-3.571v-0.421c-0.682,0.261-2.111,0.618-3.603,0.618c-4.479,0-7.432-3.443-7.432-7.822
		c0-4.543,3.082-7.853,7.172-7.853c3.181,0,4.901,2.237,4.901,2.237l0.388-1.198c0.128-0.423,0.356-0.716,0.713-0.716h1.202
		c0.389,0,0.713,0.324,0.713,0.716V62.585z M155.43,52.883c-0.324-0.844-1.365-2.077-3.312-2.077c-2.337,0-3.537,2.044-3.537,4.154
		c0,2.109,1.266,4.122,3.733,4.122c1.879,0,3.115-0.844,3.115-0.844V52.883z"/>
	<path fill="#FFFFFF" d="M163.636,40.421c0-0.357,0.357-0.714,0.714-0.714h2.628c0.391,0,0.714,0.357,0.714,0.714v7.951
		c0.748-0.649,2.045-1.265,3.829-1.265c4.771,0,6.069,3.31,6.069,7.074v7.529c0,0.388-0.356,0.715-0.715,0.715h-2.629
		c-0.389,0-0.713-0.327-0.713-0.715v-7.562c0-2.077-0.94-3.342-2.728-3.342c-1.75,0-2.723,1.103-3.114,2.629v8.275
		c0,0.421-0.194,0.715-0.778,0.715h-2.563c-0.356,0-0.714-0.327-0.714-0.715V40.421z"/>
	<path fill="#FFFFFF" d="M182.424,51.064h-1.461c-0.389,0-0.681-0.356-0.681-0.713v-2.205c0-0.423,0.292-0.716,0.681-0.716h1.461
		v-4.153c0-0.39,0.356-0.715,0.715-0.715h2.661c0.39,0,0.681,0.325,0.681,0.715v4.153h3.505c0.39,0,0.715,0.292,0.715,0.716v2.205
		c0,0.357-0.325,0.713-0.715,0.713h-3.505v6.75c0,1.006,0.486,1.233,1.232,1.233c0.649,0,1.882-0.358,2.272-0.485
		c0.422-0.163,0.778,0.032,0.844,0.387l0.422,1.982c0.097,0.39-0.066,0.679-0.422,0.874c-0.52,0.292-2.661,0.977-4.219,0.977
		c-3.343,0-4.187-2.241-4.187-4.838V51.064z"/>
	<path fill="#FFFFFF" d="M214.203,59.019h-0.525c-0.288,0-0.565-0.149-0.743-0.399l-2.866-3.946l-2.91,3.951
		c-0.124,0.223-0.409,0.395-0.698,0.395h-0.547c-0.254,0-0.478-0.131-0.583-0.342c-0.11-0.22-0.079-0.48,0.08-0.698l3.501-4.577
		l-3.3-4.307c-0.164-0.224-0.195-0.482-0.086-0.701c0.109-0.217,0.337-0.346,0.605-0.346h0.504c0.277,0,0.558,0.157,0.744,0.421
		l2.672,3.605l2.735-3.613c0.108-0.231,0.398-0.413,0.718-0.413h0.522c0.285,0,0.52,0.143,0.615,0.375
		c0.098,0.237,0.035,0.503-0.173,0.713l-3.223,4.247l3.457,4.595c0.163,0.184,0.209,0.446,0.104,0.672
		C214.705,58.876,214.474,59.019,214.203,59.019z"/>
	<rect x="195.657" y="71.035" fill="#FFFFFF" width="29.551" height="2.591"/>
	<path fill="#FFFFFF" d="M218.624,39.814l-0.669,0.901c3.68,2.76,6.727,7.671,6.525,12.436c-0.192,4.614-2.466,9.375-6.525,12.244
		l0.669,0.869c4.183-2.924,7.07-7.621,7.07-13.113C225.694,47.662,222.826,42.988,218.624,39.814z"/>
	<path fill="#FFFFFF" d="M201.916,40.031l0.669,0.901c-3.681,2.76-6.726,7.671-6.524,12.437c0.191,4.611,2.465,9.376,6.524,12.244
		l-0.669,0.867c-4.185-2.924-7.072-7.621-7.072-13.111S197.712,43.205,201.916,40.031z"/>
</g>
</svg>
