<?xml version="1.0" encoding="utf-8"?>
<!-- Generator: Adobe Illustrator 16.0.0, SVG Export Plug-In . SVG Version: 6.00 Build 0)  -->
<!DOCTYPE svg PUBLIC "-//W3C//DTD SVG 1.1//EN" "http://www.w3.org/Graphics/SVG/1.1/DTD/svg11.dtd">
<svg version="1.1" id="Layer_1" xmlns="http://www.w3.org/2000/svg" xmlns:xlink="http://www.w3.org/1999/xlink" x="0px" y="0px"
	 width="300px" height="300px" viewBox="0 0 300 300" enable-background="new 0 0 300 300" xml:space="preserve">
<path fill="#050606" d="M63.753,134.252h-6.126c-0.44,0-0.76-0.359-0.76-0.76v-3.285c0-0.4,0.319-0.759,0.76-0.759h17.497
	c0.44,0,0.762,0.359,0.762,0.759v3.285c0,0.401-0.321,0.76-0.762,0.76H69v22.461c0,0.401-0.361,0.762-0.762,0.762h-3.723
	c-0.401,0-0.762-0.36-0.762-0.762V134.252z"/>
<path fill="#050606" d="M79.248,130.329c0-0.44,0.44-0.88,0.881-0.88h3.243c0.482,0,0.88,0.44,0.88,0.88v9.81
	c0.922-0.801,2.523-1.561,4.727-1.561c5.885,0,7.487,4.084,7.487,8.727v9.29c0,0.48-0.44,0.881-0.883,0.881H92.34
	c-0.48,0-0.88-0.4-0.88-0.881v-9.33c0-2.562-1.161-4.123-3.364-4.123c-2.162,0-3.361,1.36-3.844,3.243v10.21
	c0,0.521-0.24,0.881-0.96,0.881h-3.163c-0.44,0-0.881-0.4-0.881-0.881V130.329z"/>
<path fill="#050606" d="M109.674,138.578c5.246,0,9.489,4.403,9.489,9.607c0,5.286-4.243,9.73-9.489,9.73
	c-5.204,0-9.449-4.444-9.449-9.73C100.226,142.981,104.47,138.578,109.674,138.578z M109.674,153.353
	c2.684,0,4.846-2.322,4.846-5.167c0-2.803-2.162-5.043-4.846-5.043c-2.683,0-4.806,2.241-4.806,5.043
	C104.869,151.03,106.991,153.353,109.674,153.353z"/>
<path fill="#050606" d="M122.925,139.859c0-0.521,0.401-0.883,0.881-0.883h3.243c0.482,0,0.883,0.361,0.883,0.883v9.808
	c0,2.443,0.839,3.686,3.122,3.686c2.043,0,3.003-1.843,3.285-3.443v-10.05c0-0.722,0.24-0.883,1-0.883h3.124
	c0.48,0,0.88,0.361,0.88,0.883v16.735c0,0.48-0.4,0.881-0.88,0.881h-1.442c-0.44,0-0.762-0.321-0.881-0.68l-0.52-1.562
	c-0.962,1-2.884,2.682-5.726,2.682c-5.726,0-6.968-3.564-6.968-8.249V139.859z"/>
<path fill="#050606" d="M161.962,157.676c0,5.967-4.165,8.969-9.208,8.969c-3.043,0-5.766-1.402-6.647-2.082
	c-0.282-0.24-0.4-0.72-0.2-1.041l1.2-2.603c0.161-0.361,0.683-0.479,1.081-0.24c0.683,0.401,2.483,1.402,4.405,1.402
	c2.842,0,4.365-0.962,4.365-4.405v-0.521c-0.841,0.321-2.604,0.762-4.444,0.762c-5.526,0-9.169-4.244-9.169-9.649
	c0-5.605,3.804-9.689,8.848-9.689c3.925,0,6.047,2.761,6.047,2.761l0.48-1.479c0.158-0.521,0.44-0.883,0.88-0.883h1.482
	c0.479,0,0.88,0.401,0.88,0.883V157.676z M156.958,145.705c-0.4-1.042-1.682-2.562-4.086-2.562c-2.881,0-4.363,2.522-4.363,5.125
	c0,2.602,1.561,5.085,4.605,5.085c2.32,0,3.844-1.041,3.844-1.041V145.705z"/>
<path fill="#050606" d="M167.083,130.329c0-0.44,0.44-0.88,0.881-0.88h3.243c0.481,0,0.88,0.44,0.88,0.88v9.81
	c0.923-0.801,2.523-1.561,4.727-1.561c5.885,0,7.487,4.084,7.487,8.727v9.29c0,0.48-0.44,0.881-0.883,0.881h-3.242
	c-0.48,0-0.881-0.4-0.881-0.881v-9.33c0-2.562-1.16-4.123-3.364-4.123c-2.161,0-3.361,1.36-3.844,3.243v10.21
	c0,0.521-0.239,0.881-0.96,0.881h-3.163c-0.44,0-0.881-0.4-0.881-0.881V130.329z"/>
<path fill="#050606" d="M190.265,143.461h-1.803c-0.479,0-0.841-0.44-0.841-0.88v-2.721c0-0.521,0.361-0.883,0.841-0.883h1.803
	v-5.125c0-0.48,0.44-0.88,0.881-0.88h3.282c0.482,0,0.841,0.4,0.841,0.88v5.125h4.326c0.479,0,0.881,0.361,0.881,0.883v2.721
	c0,0.44-0.401,0.88-0.881,0.88h-4.326v8.328c0,1.242,0.602,1.521,1.521,1.521c0.802,0,2.322-0.44,2.805-0.599
	c0.52-0.2,0.96,0.039,1.039,0.479l0.521,2.441c0.119,0.482-0.081,0.842-0.521,1.081c-0.641,0.361-3.282,1.202-5.204,1.202
	c-4.123,0-5.165-2.763-5.165-5.966V143.461z"/>
<path fill="#050606" d="M229.475,153.275h-0.648c-0.354,0-0.699-0.184-0.918-0.493l-3.537-4.868l-3.59,4.875
	c-0.152,0.275-0.505,0.486-0.861,0.486h-0.674c-0.313,0-0.589-0.161-0.721-0.422c-0.136-0.271-0.098-0.593,0.101-0.861l4.319-5.647
	l-4.071-5.315c-0.204-0.275-0.242-0.595-0.106-0.864c0.136-0.267,0.415-0.428,0.747-0.428h0.622c0.342,0,0.687,0.194,0.918,0.52
	l3.295,4.449l3.377-4.459c0.133-0.284,0.49-0.509,0.885-0.509h0.646c0.349,0,0.639,0.178,0.758,0.463
	c0.121,0.292,0.042,0.62-0.215,0.878l-3.976,5.24l4.266,5.667c0.2,0.228,0.259,0.551,0.129,0.833
	C230.093,153.1,229.807,153.275,229.475,153.275z"/>
<rect x="206.594" y="168.102" fill="#050606" width="36.46" height="3.197"/>
<path fill="#050606" d="M234.928,129.58l-0.824,1.112c4.541,3.405,8.297,9.465,8.051,15.344c-0.238,5.69-3.043,11.567-8.051,15.106
	l0.824,1.07c5.162-3.606,8.725-9.403,8.725-16.177S240.113,133.497,234.928,129.58z"/>
<path fill="#050606" d="M214.314,129.847l0.824,1.112c-4.54,3.406-8.297,9.465-8.051,15.344c0.238,5.691,3.043,11.567,8.051,15.106
	l-0.824,1.07c-5.162-3.605-8.725-9.402-8.725-16.176C205.59,139.53,209.129,133.764,214.314,129.847z"/>
</svg>
